# xmcd
#
# Track frame offsets:
#	150
#	10602
#	30542
#	46807
#	61405
#	76725
#
# Disc length: 1240 seconds
#
# Revision: 1
# Processed by: cddbd v1.4PL0 Copyright (c) Steve Scherf et al.
# Submitted via: audiograbber 1.82.02
#
DISCID=3604d606
DTITLE=The Flat Earth - You Deserve This
DYEAR=1900
DGENRE=
TTITLE0=Paranoid
TTITLE1=Wrap
TTITLE2=Telepathic
TTITLE3=Where You're Coming From
TTITLE4=Diesel Trains
TTITLE5=Grudge
EXTD=
EXTT0=
EXTT1=
EXTT2=
EXTT3=
EXTT4=
EXTT5=
PLAYORDER=
